%TF.GenerationSoftware,KiCad,Pcbnew,(6.0.8)*%
%TF.CreationDate,2022-10-21T20:54:05+03:00*%
%TF.ProjectId,commboard,636f6d6d-626f-4617-9264-2e6b69636164,rev?*%
%TF.SameCoordinates,Original*%
%TF.FileFunction,Drillmap*%
%TF.FilePolarity,Positive*%
%FSLAX45Y45*%
G04 Gerber Fmt 4.5, Leading zero omitted, Abs format (unit mm)*
G04 Created by KiCad (PCBNEW (6.0.8)) date 2022-10-21 20:54:05*
%MOMM*%
%LPD*%
G01*
G04 APERTURE LIST*
%ADD10C,0.100000*%
%ADD11C,0.200000*%
G04 APERTURE END LIST*
D10*
X16230000Y-4000000D02*
X4000000Y-4000000D01*
X4000000Y-4000000D02*
X4000000Y-16120000D01*
X4000000Y-16120000D02*
X16230000Y-16120000D01*
X16230000Y-16120000D02*
X16230000Y-4000000D01*
D11*
X4252619Y-16435476D02*
X4252619Y-16235476D01*
X4300238Y-16235476D01*
X4328810Y-16245000D01*
X4347857Y-16264048D01*
X4357381Y-16283095D01*
X4366905Y-16321190D01*
X4366905Y-16349762D01*
X4357381Y-16387857D01*
X4347857Y-16406905D01*
X4328810Y-16425952D01*
X4300238Y-16435476D01*
X4252619Y-16435476D01*
X4452619Y-16435476D02*
X4452619Y-16302143D01*
X4452619Y-16340238D02*
X4462143Y-16321190D01*
X4471667Y-16311667D01*
X4490714Y-16302143D01*
X4509762Y-16302143D01*
X4576429Y-16435476D02*
X4576429Y-16302143D01*
X4576429Y-16235476D02*
X4566905Y-16245000D01*
X4576429Y-16254524D01*
X4585952Y-16245000D01*
X4576429Y-16235476D01*
X4576429Y-16254524D01*
X4700238Y-16435476D02*
X4681190Y-16425952D01*
X4671667Y-16406905D01*
X4671667Y-16235476D01*
X4805000Y-16435476D02*
X4785952Y-16425952D01*
X4776429Y-16406905D01*
X4776429Y-16235476D01*
X5033571Y-16435476D02*
X5033571Y-16235476D01*
X5100238Y-16378333D01*
X5166905Y-16235476D01*
X5166905Y-16435476D01*
X5347857Y-16435476D02*
X5347857Y-16330714D01*
X5338333Y-16311667D01*
X5319286Y-16302143D01*
X5281190Y-16302143D01*
X5262143Y-16311667D01*
X5347857Y-16425952D02*
X5328810Y-16435476D01*
X5281190Y-16435476D01*
X5262143Y-16425952D01*
X5252619Y-16406905D01*
X5252619Y-16387857D01*
X5262143Y-16368809D01*
X5281190Y-16359286D01*
X5328810Y-16359286D01*
X5347857Y-16349762D01*
X5443095Y-16302143D02*
X5443095Y-16502143D01*
X5443095Y-16311667D02*
X5462143Y-16302143D01*
X5500238Y-16302143D01*
X5519286Y-16311667D01*
X5528810Y-16321190D01*
X5538333Y-16340238D01*
X5538333Y-16397381D01*
X5528810Y-16416428D01*
X5519286Y-16425952D01*
X5500238Y-16435476D01*
X5462143Y-16435476D01*
X5443095Y-16425952D01*
X5624048Y-16416428D02*
X5633571Y-16425952D01*
X5624048Y-16435476D01*
X5614524Y-16425952D01*
X5624048Y-16416428D01*
X5624048Y-16435476D01*
X5624048Y-16311667D02*
X5633571Y-16321190D01*
X5624048Y-16330714D01*
X5614524Y-16321190D01*
X5624048Y-16311667D01*
X5624048Y-16330714D01*
M02*
