%TF.GenerationSoftware,KiCad,Pcbnew,(6.0.8)*%
%TF.CreationDate,2022-10-21T20:54:02+03:00*%
%TF.ProjectId,commboard,636f6d6d-626f-4617-9264-2e6b69636164,rev?*%
%TF.SameCoordinates,Original*%
%TF.FileFunction,Paste,Top*%
%TF.FilePolarity,Positive*%
%FSLAX46Y46*%
G04 Gerber Fmt 4.6, Leading zero omitted, Abs format (unit mm)*
G04 Created by KiCad (PCBNEW (6.0.8)) date 2022-10-21 20:54:02*
%MOMM*%
%LPD*%
G01*
G04 APERTURE LIST*
G04 Aperture macros list*
%AMRoundRect*
0 Rectangle with rounded corners*
0 $1 Rounding radius*
0 $2 $3 $4 $5 $6 $7 $8 $9 X,Y pos of 4 corners*
0 Add a 4 corners polygon primitive as box body*
4,1,4,$2,$3,$4,$5,$6,$7,$8,$9,$2,$3,0*
0 Add four circle primitives for the rounded corners*
1,1,$1+$1,$2,$3*
1,1,$1+$1,$4,$5*
1,1,$1+$1,$6,$7*
1,1,$1+$1,$8,$9*
0 Add four rect primitives between the rounded corners*
20,1,$1+$1,$2,$3,$4,$5,0*
20,1,$1+$1,$4,$5,$6,$7,0*
20,1,$1+$1,$6,$7,$8,$9,0*
20,1,$1+$1,$8,$9,$2,$3,0*%
G04 Aperture macros list end*
%ADD10RoundRect,0.250000X-0.475000X0.250000X-0.475000X-0.250000X0.475000X-0.250000X0.475000X0.250000X0*%
%ADD11RoundRect,0.243750X0.456250X-0.243750X0.456250X0.243750X-0.456250X0.243750X-0.456250X-0.243750X0*%
%ADD12RoundRect,0.250000X0.625000X-0.312500X0.625000X0.312500X-0.625000X0.312500X-0.625000X-0.312500X0*%
%ADD13RoundRect,0.250000X0.262500X0.450000X-0.262500X0.450000X-0.262500X-0.450000X0.262500X-0.450000X0*%
%ADD14RoundRect,0.250000X-0.262500X-0.450000X0.262500X-0.450000X0.262500X0.450000X-0.262500X0.450000X0*%
%ADD15RoundRect,0.250000X0.250000X0.475000X-0.250000X0.475000X-0.250000X-0.475000X0.250000X-0.475000X0*%
%ADD16RoundRect,0.250000X0.475000X-0.250000X0.475000X0.250000X-0.475000X0.250000X-0.475000X-0.250000X0*%
%ADD17RoundRect,0.250000X-0.450000X0.262500X-0.450000X-0.262500X0.450000X-0.262500X0.450000X0.262500X0*%
%ADD18RoundRect,0.250000X0.450000X-0.262500X0.450000X0.262500X-0.450000X0.262500X-0.450000X-0.262500X0*%
%ADD19RoundRect,0.250000X-0.250000X-0.475000X0.250000X-0.475000X0.250000X0.475000X-0.250000X0.475000X0*%
%ADD20R,2.000000X1.780000*%
%ADD21RoundRect,0.150000X0.150000X-0.825000X0.150000X0.825000X-0.150000X0.825000X-0.150000X-0.825000X0*%
%ADD22R,5.250000X4.550000*%
%ADD23R,1.100000X4.600000*%
%ADD24R,1.800000X2.500000*%
%ADD25RoundRect,0.150000X0.825000X0.150000X-0.825000X0.150000X-0.825000X-0.150000X0.825000X-0.150000X0*%
%ADD26R,1.200000X3.500000*%
%ADD27R,2.800000X1.000000*%
%ADD28RoundRect,0.150000X-0.825000X-0.150000X0.825000X-0.150000X0.825000X0.150000X-0.825000X0.150000X0*%
%ADD29R,2.900000X5.400000*%
%ADD30RoundRect,0.150000X-0.587500X-0.150000X0.587500X-0.150000X0.587500X0.150000X-0.587500X0.150000X0*%
%ADD31R,1.780000X2.000000*%
%ADD32RoundRect,0.075000X-0.662500X-0.075000X0.662500X-0.075000X0.662500X0.075000X-0.662500X0.075000X0*%
%ADD33RoundRect,0.075000X-0.075000X-0.662500X0.075000X-0.662500X0.075000X0.662500X-0.075000X0.662500X0*%
%ADD34R,2.500000X1.800000*%
G04 APERTURE END LIST*
D10*
%TO.C,C114*%
X58800000Y-110750000D03*
X58800000Y-112650000D03*
%TD*%
D11*
%TO.C,D101*%
X73050000Y-106000000D03*
X73050000Y-104125000D03*
%TD*%
D12*
%TO.C,F501*%
X155330000Y-49181250D03*
X155330000Y-46256250D03*
%TD*%
D13*
%TO.C,R114*%
X105705000Y-48188750D03*
X103880000Y-48188750D03*
%TD*%
D14*
%TO.C,R109*%
X78987500Y-101300000D03*
X80812500Y-101300000D03*
%TD*%
D15*
%TO.C,C115*%
X66550000Y-95900000D03*
X64650000Y-95900000D03*
%TD*%
D16*
%TO.C,C201*%
X115800000Y-99500000D03*
X115800000Y-97600000D03*
%TD*%
D17*
%TO.C,R107*%
X46200000Y-124487500D03*
X46200000Y-126312500D03*
%TD*%
D13*
%TO.C,R110*%
X80812500Y-99000000D03*
X78987500Y-99000000D03*
%TD*%
D18*
%TO.C,R201*%
X118600000Y-100300000D03*
X118600000Y-98475000D03*
%TD*%
D13*
%TO.C,R801*%
X59950238Y-66170000D03*
X58125238Y-66170000D03*
%TD*%
D15*
%TO.C,C301*%
X76580000Y-138348750D03*
X74680000Y-138348750D03*
%TD*%
D19*
%TO.C,C111*%
X92090000Y-74257500D03*
X93990000Y-74257500D03*
%TD*%
D20*
%TO.C,U801*%
X59835000Y-70330000D03*
X59835000Y-72870000D03*
X69365000Y-72870000D03*
X69365000Y-70330000D03*
%TD*%
D21*
%TO.C,U102*%
X79080000Y-109500000D03*
X80350000Y-109500000D03*
X81620000Y-109500000D03*
X82890000Y-109500000D03*
X82890000Y-104550000D03*
X81620000Y-104550000D03*
X80350000Y-104550000D03*
X79080000Y-104550000D03*
%TD*%
D20*
%TO.C,U901*%
X59735000Y-55130000D03*
X59735000Y-57670000D03*
X69265000Y-57670000D03*
X69265000Y-55130000D03*
%TD*%
D15*
%TO.C,C401*%
X92605000Y-138343750D03*
X90705000Y-138343750D03*
%TD*%
D22*
%TO.C,U501*%
X124830000Y-52568750D03*
X119280000Y-52568750D03*
X119280000Y-47718750D03*
X124830000Y-47718750D03*
D23*
X118655000Y-59293750D03*
X120355000Y-59293750D03*
X122055000Y-59293750D03*
X123755000Y-59293750D03*
X125455000Y-59293750D03*
%TD*%
D13*
%TO.C,R108*%
X56312500Y-121300000D03*
X54487500Y-121300000D03*
%TD*%
D24*
%TO.C,D501*%
X140130000Y-50218750D03*
X140130000Y-46218750D03*
%TD*%
D13*
%TO.C,R403*%
X92547500Y-141323750D03*
X90722500Y-141323750D03*
%TD*%
D14*
%TO.C,R115*%
X108392500Y-48188750D03*
X110217500Y-48188750D03*
%TD*%
D25*
%TO.C,U104*%
X109630000Y-56758750D03*
X109630000Y-55488750D03*
X109630000Y-54218750D03*
X109630000Y-52948750D03*
X104680000Y-52948750D03*
X104680000Y-54218750D03*
X104680000Y-55488750D03*
X104680000Y-56758750D03*
%TD*%
D26*
%TO.C,Y101*%
X74250000Y-118650000D03*
X74250000Y-113150000D03*
%TD*%
D13*
%TO.C,R104*%
X125942500Y-121818750D03*
X124117500Y-121818750D03*
%TD*%
D27*
%TO.C,SW101*%
X48500000Y-109600000D03*
X54300000Y-109600000D03*
X48500000Y-113600000D03*
X54300000Y-113600000D03*
%TD*%
D28*
%TO.C,U201*%
X108455000Y-102613750D03*
X108455000Y-103883750D03*
X108455000Y-105153750D03*
X108455000Y-106423750D03*
X113405000Y-106423750D03*
X113405000Y-105153750D03*
X113405000Y-103883750D03*
X113405000Y-102613750D03*
%TD*%
D18*
%TO.C,R202*%
X117600000Y-105212500D03*
X117600000Y-103387500D03*
%TD*%
D14*
%TO.C,R111*%
X78987500Y-96700000D03*
X80812500Y-96700000D03*
%TD*%
D29*
%TO.C,L501*%
X118430000Y-78718750D03*
X128330000Y-78718750D03*
%TD*%
D17*
%TO.C,R1102*%
X121580000Y-101005000D03*
X121580000Y-102830000D03*
%TD*%
D30*
%TO.C,Q101*%
X49362500Y-124450000D03*
X49362500Y-126350000D03*
X51237500Y-125400000D03*
%TD*%
D13*
%TO.C,R901*%
X59765238Y-51238184D03*
X57940238Y-51238184D03*
%TD*%
D31*
%TO.C,U1201*%
X128200000Y-91932500D03*
X125660000Y-91932500D03*
X125660000Y-101462500D03*
X128200000Y-101462500D03*
%TD*%
D18*
%TO.C,R1002*%
X73095238Y-85656816D03*
X73095238Y-83831816D03*
%TD*%
D28*
%TO.C,U301*%
X75155000Y-131713750D03*
X75155000Y-132983750D03*
X75155000Y-134253750D03*
X75155000Y-135523750D03*
X80105000Y-135523750D03*
X80105000Y-134253750D03*
X80105000Y-132983750D03*
X80105000Y-131713750D03*
%TD*%
D14*
%TO.C,R101*%
X124117500Y-125318750D03*
X125942500Y-125318750D03*
%TD*%
D18*
%TO.C,R402*%
X100500000Y-134212500D03*
X100500000Y-132387500D03*
%TD*%
D32*
%TO.C,U101*%
X86267500Y-114768750D03*
X86267500Y-115268750D03*
X86267500Y-115768750D03*
X86267500Y-116268750D03*
X86267500Y-116768750D03*
X86267500Y-117268750D03*
X86267500Y-117768750D03*
X86267500Y-118268750D03*
X86267500Y-118768750D03*
X86267500Y-119268750D03*
X86267500Y-119768750D03*
X86267500Y-120268750D03*
D33*
X87680000Y-121681250D03*
X88180000Y-121681250D03*
X88680000Y-121681250D03*
X89180000Y-121681250D03*
X89680000Y-121681250D03*
X90180000Y-121681250D03*
X90680000Y-121681250D03*
X91180000Y-121681250D03*
X91680000Y-121681250D03*
X92180000Y-121681250D03*
X92680000Y-121681250D03*
X93180000Y-121681250D03*
D32*
X94592500Y-120268750D03*
X94592500Y-119768750D03*
X94592500Y-119268750D03*
X94592500Y-118768750D03*
X94592500Y-118268750D03*
X94592500Y-117768750D03*
X94592500Y-117268750D03*
X94592500Y-116768750D03*
X94592500Y-116268750D03*
X94592500Y-115768750D03*
X94592500Y-115268750D03*
X94592500Y-114768750D03*
D33*
X93180000Y-113356250D03*
X92680000Y-113356250D03*
X92180000Y-113356250D03*
X91680000Y-113356250D03*
X91180000Y-113356250D03*
X90680000Y-113356250D03*
X90180000Y-113356250D03*
X89680000Y-113356250D03*
X89180000Y-113356250D03*
X88680000Y-113356250D03*
X88180000Y-113356250D03*
X87680000Y-113356250D03*
%TD*%
D18*
%TO.C,R102*%
X75650000Y-105950000D03*
X75650000Y-104125000D03*
%TD*%
%TO.C,R802*%
X73380238Y-72625000D03*
X73380238Y-70800000D03*
%TD*%
%TO.C,R302*%
X84060000Y-134312500D03*
X84060000Y-132487500D03*
%TD*%
D15*
%TO.C,C117*%
X107967500Y-60118750D03*
X106067500Y-60118750D03*
%TD*%
D18*
%TO.C,R902*%
X73395238Y-57093184D03*
X73395238Y-55268184D03*
%TD*%
D13*
%TO.C,R106*%
X51312500Y-121200000D03*
X49487500Y-121200000D03*
%TD*%
D31*
%TO.C,U1101*%
X122160000Y-115462500D03*
X124700000Y-115462500D03*
X124700000Y-105932500D03*
X122160000Y-105932500D03*
%TD*%
D18*
%TO.C,R1101*%
X128230000Y-115980000D03*
X128230000Y-114155000D03*
%TD*%
D20*
%TO.C,U1001*%
X59535000Y-83530000D03*
X59535000Y-86070000D03*
X69065000Y-86070000D03*
X69065000Y-83530000D03*
%TD*%
D30*
%TO.C,Q102*%
X54662500Y-124450000D03*
X54662500Y-126350000D03*
X56537500Y-125400000D03*
%TD*%
D18*
%TO.C,R203*%
X112900000Y-100100000D03*
X112900000Y-98275000D03*
%TD*%
D28*
%TO.C,U401*%
X91180000Y-131708750D03*
X91180000Y-132978750D03*
X91180000Y-134248750D03*
X91180000Y-135518750D03*
X96130000Y-135518750D03*
X96130000Y-134248750D03*
X96130000Y-132978750D03*
X96130000Y-131708750D03*
%TD*%
D19*
%TO.C,C102*%
X74250000Y-122850000D03*
X76150000Y-122850000D03*
%TD*%
D14*
%TO.C,R401*%
X95172500Y-138313750D03*
X96997500Y-138313750D03*
%TD*%
D18*
%TO.C,R1202*%
X128780000Y-106390000D03*
X128780000Y-104565000D03*
%TD*%
D15*
%TO.C,C105*%
X71850000Y-108450000D03*
X69950000Y-108450000D03*
%TD*%
D14*
%TO.C,R301*%
X79147500Y-138318750D03*
X80972500Y-138318750D03*
%TD*%
D13*
%TO.C,R1001*%
X59565238Y-79801816D03*
X57740238Y-79801816D03*
%TD*%
D17*
%TO.C,R1201*%
X122130000Y-91415000D03*
X122130000Y-93240000D03*
%TD*%
D13*
%TO.C,R105*%
X75775000Y-108450000D03*
X73950000Y-108450000D03*
%TD*%
%TO.C,R303*%
X76522500Y-141328750D03*
X74697500Y-141328750D03*
%TD*%
D34*
%TO.C,D502*%
X125030000Y-66518750D03*
X129030000Y-66518750D03*
%TD*%
D15*
%TO.C,C108*%
X76500000Y-96800000D03*
X74600000Y-96800000D03*
%TD*%
M02*
