%TF.GenerationSoftware,KiCad,Pcbnew,(6.0.8)*%
%TF.CreationDate,2022-10-21T20:54:02+03:00*%
%TF.ProjectId,commboard,636f6d6d-626f-4617-9264-2e6b69636164,rev?*%
%TF.SameCoordinates,Original*%
%TF.FileFunction,Soldermask,Top*%
%TF.FilePolarity,Negative*%
%FSLAX46Y46*%
G04 Gerber Fmt 4.6, Leading zero omitted, Abs format (unit mm)*
G04 Created by KiCad (PCBNEW (6.0.8)) date 2022-10-21 20:54:02*
%MOMM*%
%LPD*%
G01*
G04 APERTURE LIST*
G04 Aperture macros list*
%AMRoundRect*
0 Rectangle with rounded corners*
0 $1 Rounding radius*
0 $2 $3 $4 $5 $6 $7 $8 $9 X,Y pos of 4 corners*
0 Add a 4 corners polygon primitive as box body*
4,1,4,$2,$3,$4,$5,$6,$7,$8,$9,$2,$3,0*
0 Add four circle primitives for the rounded corners*
1,1,$1+$1,$2,$3*
1,1,$1+$1,$4,$5*
1,1,$1+$1,$6,$7*
1,1,$1+$1,$8,$9*
0 Add four rect primitives between the rounded corners*
20,1,$1+$1,$2,$3,$4,$5,0*
20,1,$1+$1,$4,$5,$6,$7,0*
20,1,$1+$1,$6,$7,$8,$9,0*
20,1,$1+$1,$8,$9,$2,$3,0*%
G04 Aperture macros list end*
%ADD10RoundRect,0.250000X-0.475000X0.250000X-0.475000X-0.250000X0.475000X-0.250000X0.475000X0.250000X0*%
%ADD11RoundRect,0.243750X0.456250X-0.243750X0.456250X0.243750X-0.456250X0.243750X-0.456250X-0.243750X0*%
%ADD12RoundRect,0.249999X-1.550001X0.790001X-1.550001X-0.790001X1.550001X-0.790001X1.550001X0.790001X0*%
%ADD13O,3.600000X2.080000*%
%ADD14RoundRect,0.250000X0.625000X-0.312500X0.625000X0.312500X-0.625000X0.312500X-0.625000X-0.312500X0*%
%ADD15RoundRect,0.250000X0.262500X0.450000X-0.262500X0.450000X-0.262500X-0.450000X0.262500X-0.450000X0*%
%ADD16R,1.600000X1.600000*%
%ADD17C,1.600000*%
%ADD18RoundRect,0.249999X0.790001X1.550001X-0.790001X1.550001X-0.790001X-1.550001X0.790001X-1.550001X0*%
%ADD19O,2.080000X3.600000*%
%ADD20RoundRect,0.250000X-0.262500X-0.450000X0.262500X-0.450000X0.262500X0.450000X-0.262500X0.450000X0*%
%ADD21RoundRect,0.249999X1.550001X-0.790001X1.550001X0.790001X-1.550001X0.790001X-1.550001X-0.790001X0*%
%ADD22RoundRect,0.250000X0.250000X0.475000X-0.250000X0.475000X-0.250000X-0.475000X0.250000X-0.475000X0*%
%ADD23RoundRect,0.250000X0.475000X-0.250000X0.475000X0.250000X-0.475000X0.250000X-0.475000X-0.250000X0*%
%ADD24RoundRect,0.250000X-0.450000X0.262500X-0.450000X-0.262500X0.450000X-0.262500X0.450000X0.262500X0*%
%ADD25RoundRect,0.250000X0.450000X-0.262500X0.450000X0.262500X-0.450000X0.262500X-0.450000X-0.262500X0*%
%ADD26RoundRect,0.250000X-0.250000X-0.475000X0.250000X-0.475000X0.250000X0.475000X-0.250000X0.475000X0*%
%ADD27R,2.000000X1.780000*%
%ADD28RoundRect,0.150000X0.150000X-0.825000X0.150000X0.825000X-0.150000X0.825000X-0.150000X-0.825000X0*%
%ADD29R,1.100000X4.600000*%
%ADD30R,10.800000X9.400000*%
%ADD31R,1.800000X2.500000*%
%ADD32RoundRect,0.249999X-0.790001X-1.550001X0.790001X-1.550001X0.790001X1.550001X-0.790001X1.550001X0*%
%ADD33RoundRect,0.150000X0.825000X0.150000X-0.825000X0.150000X-0.825000X-0.150000X0.825000X-0.150000X0*%
%ADD34R,1.200000X3.500000*%
%ADD35R,2.800000X1.000000*%
%ADD36RoundRect,0.150000X-0.825000X-0.150000X0.825000X-0.150000X0.825000X0.150000X-0.825000X0.150000X0*%
%ADD37R,1.700000X1.700000*%
%ADD38O,1.700000X1.700000*%
%ADD39R,2.900000X5.400000*%
%ADD40RoundRect,0.150000X-0.587500X-0.150000X0.587500X-0.150000X0.587500X0.150000X-0.587500X0.150000X0*%
%ADD41R,1.780000X2.000000*%
%ADD42RoundRect,0.075000X-0.662500X-0.075000X0.662500X-0.075000X0.662500X0.075000X-0.662500X0.075000X0*%
%ADD43RoundRect,0.075000X-0.075000X-0.662500X0.075000X-0.662500X0.075000X0.662500X-0.075000X0.662500X0*%
%ADD44C,1.700000*%
%ADD45C,3.500000*%
%ADD46R,2.500000X1.800000*%
G04 APERTURE END LIST*
D10*
%TO.C,C114*%
X58800000Y-110750000D03*
X58800000Y-112650000D03*
%TD*%
D11*
%TO.C,D101*%
X73050000Y-106000000D03*
X73050000Y-104125000D03*
%TD*%
D12*
%TO.C,J901*%
X49230000Y-51318750D03*
D13*
X49230000Y-56398750D03*
%TD*%
D14*
%TO.C,F501*%
X155330000Y-49181250D03*
X155330000Y-46256250D03*
%TD*%
D15*
%TO.C,R114*%
X105705000Y-48188750D03*
X103880000Y-48188750D03*
%TD*%
D16*
%TO.C,C504*%
X131700000Y-47994888D03*
D17*
X131700000Y-50494888D03*
%TD*%
D18*
%TO.C,J401*%
X152910000Y-69318750D03*
D19*
X147830000Y-69318750D03*
X142750000Y-69318750D03*
X137670000Y-69318750D03*
%TD*%
D20*
%TO.C,R109*%
X78987500Y-101300000D03*
X80812500Y-101300000D03*
%TD*%
D21*
%TO.C,J108*%
X137600000Y-153240000D03*
D13*
X137600000Y-148160000D03*
%TD*%
D16*
%TO.C,C702*%
X111055000Y-93543750D03*
D17*
X111055000Y-91043750D03*
%TD*%
D22*
%TO.C,C115*%
X66550000Y-95900000D03*
X64650000Y-95900000D03*
%TD*%
D23*
%TO.C,C201*%
X115800000Y-99500000D03*
X115800000Y-97600000D03*
%TD*%
D24*
%TO.C,R107*%
X46200000Y-124487500D03*
X46200000Y-126312500D03*
%TD*%
D15*
%TO.C,R110*%
X80812500Y-99000000D03*
X78987500Y-99000000D03*
%TD*%
D25*
%TO.C,R201*%
X118600000Y-100300000D03*
X118600000Y-98475000D03*
%TD*%
D16*
%TO.C,C113*%
X105090000Y-66557500D03*
D17*
X102590000Y-66557500D03*
%TD*%
D15*
%TO.C,R801*%
X59950238Y-66170000D03*
X58125238Y-66170000D03*
%TD*%
D22*
%TO.C,C301*%
X76580000Y-138348750D03*
X74680000Y-138348750D03*
%TD*%
D17*
%TO.C,C107*%
X130630000Y-119918750D03*
X130630000Y-124918750D03*
%TD*%
D26*
%TO.C,C111*%
X92090000Y-74257500D03*
X93990000Y-74257500D03*
%TD*%
D27*
%TO.C,U801*%
X59835000Y-70330000D03*
X59835000Y-72870000D03*
X69365000Y-72870000D03*
X69365000Y-70330000D03*
%TD*%
D28*
%TO.C,U102*%
X79080000Y-109500000D03*
X80350000Y-109500000D03*
X81620000Y-109500000D03*
X82890000Y-109500000D03*
X82890000Y-104550000D03*
X81620000Y-104550000D03*
X80350000Y-104550000D03*
X79080000Y-104550000D03*
%TD*%
D27*
%TO.C,U901*%
X59735000Y-55130000D03*
X59735000Y-57670000D03*
X69265000Y-57670000D03*
X69265000Y-55130000D03*
%TD*%
D22*
%TO.C,C401*%
X92605000Y-138343750D03*
X90705000Y-138343750D03*
%TD*%
D29*
%TO.C,U501*%
X118655000Y-59293750D03*
X120355000Y-59293750D03*
X122055000Y-59293750D03*
D30*
X122055000Y-50143750D03*
D29*
X123755000Y-59293750D03*
X125455000Y-59293750D03*
%TD*%
D15*
%TO.C,R108*%
X56312500Y-121300000D03*
X54487500Y-121300000D03*
%TD*%
D31*
%TO.C,D501*%
X140130000Y-50218750D03*
X140130000Y-46218750D03*
%TD*%
D18*
%TO.C,J201*%
X152930000Y-95418750D03*
D19*
X147850000Y-95418750D03*
X142770000Y-95418750D03*
X137690000Y-95418750D03*
%TD*%
D15*
%TO.C,R403*%
X92547500Y-141323750D03*
X90722500Y-141323750D03*
%TD*%
D16*
%TO.C,C701*%
X104649887Y-98343750D03*
D17*
X107149887Y-98343750D03*
%TD*%
D32*
%TO.C,J101*%
X137710000Y-123663750D03*
D19*
X142790000Y-123663750D03*
X147870000Y-123663750D03*
X152950000Y-123663750D03*
%TD*%
D12*
%TO.C,J1001*%
X49030000Y-84218750D03*
D13*
X49030000Y-89298750D03*
%TD*%
D20*
%TO.C,R115*%
X108392500Y-48188750D03*
X110217500Y-48188750D03*
%TD*%
D33*
%TO.C,U104*%
X109630000Y-56758750D03*
X109630000Y-55488750D03*
X109630000Y-54218750D03*
X109630000Y-52948750D03*
X104680000Y-52948750D03*
X104680000Y-54218750D03*
X104680000Y-55488750D03*
X104680000Y-56758750D03*
%TD*%
D34*
%TO.C,Y101*%
X74250000Y-118650000D03*
X74250000Y-113150000D03*
%TD*%
D15*
%TO.C,R104*%
X125942500Y-121818750D03*
X124117500Y-121818750D03*
%TD*%
D35*
%TO.C,SW101*%
X48500000Y-109600000D03*
X54300000Y-109600000D03*
X48500000Y-113600000D03*
X54300000Y-113600000D03*
%TD*%
D16*
%TO.C,C705*%
X111055000Y-86443750D03*
D17*
X111055000Y-83943750D03*
%TD*%
D16*
%TO.C,C704*%
X96360112Y-92243750D03*
D17*
X93860112Y-92243750D03*
%TD*%
D36*
%TO.C,U201*%
X108455000Y-102613750D03*
X108455000Y-103883750D03*
X108455000Y-105153750D03*
X108455000Y-106423750D03*
X113405000Y-106423750D03*
X113405000Y-105153750D03*
X113405000Y-103883750D03*
X113405000Y-102613750D03*
%TD*%
D25*
%TO.C,R202*%
X117600000Y-105212500D03*
X117600000Y-103387500D03*
%TD*%
D37*
%TO.C,J112*%
X107100000Y-154500000D03*
D38*
X104560000Y-154500000D03*
X102020000Y-154500000D03*
X99480000Y-154500000D03*
X96940000Y-154500000D03*
X94400000Y-154500000D03*
%TD*%
D20*
%TO.C,R111*%
X78987500Y-96700000D03*
X80812500Y-96700000D03*
%TD*%
D39*
%TO.C,L501*%
X118430000Y-78718750D03*
X128330000Y-78718750D03*
%TD*%
D24*
%TO.C,R1102*%
X121580000Y-101005000D03*
X121580000Y-102830000D03*
%TD*%
D40*
%TO.C,Q101*%
X49362500Y-124450000D03*
X49362500Y-126350000D03*
X51237500Y-125400000D03*
%TD*%
D15*
%TO.C,R901*%
X59765238Y-51238184D03*
X57940238Y-51238184D03*
%TD*%
D41*
%TO.C,U1201*%
X128200000Y-91932500D03*
X125660000Y-91932500D03*
X125660000Y-101462500D03*
X128200000Y-101462500D03*
%TD*%
D25*
%TO.C,R1002*%
X73095238Y-85656816D03*
X73095238Y-83831816D03*
%TD*%
D36*
%TO.C,U301*%
X75155000Y-131713750D03*
X75155000Y-132983750D03*
X75155000Y-134253750D03*
X75155000Y-135523750D03*
X80105000Y-135523750D03*
X80105000Y-134253750D03*
X80105000Y-132983750D03*
X80105000Y-131713750D03*
%TD*%
D32*
%TO.C,J103*%
X137710000Y-109741250D03*
D19*
X142790000Y-109741250D03*
X147870000Y-109741250D03*
X152950000Y-109741250D03*
%TD*%
D37*
%TO.C,J104*%
X76120000Y-154500000D03*
D38*
X78660000Y-154500000D03*
X81200000Y-154500000D03*
X83740000Y-154500000D03*
%TD*%
D20*
%TO.C,R101*%
X124117500Y-125318750D03*
X125942500Y-125318750D03*
%TD*%
D25*
%TO.C,R402*%
X100500000Y-134212500D03*
X100500000Y-132387500D03*
%TD*%
D37*
%TO.C,J111*%
X71740000Y-100000000D03*
D38*
X69200000Y-100000000D03*
X66660000Y-100000000D03*
X64120000Y-100000000D03*
X61580000Y-100000000D03*
%TD*%
D21*
%TO.C,J109*%
X152922500Y-153240000D03*
D13*
X152922500Y-148160000D03*
%TD*%
D12*
%TO.C,J801*%
X49240000Y-67926250D03*
D13*
X49240000Y-73006250D03*
%TD*%
D42*
%TO.C,U101*%
X86267500Y-114768750D03*
X86267500Y-115268750D03*
X86267500Y-115768750D03*
X86267500Y-116268750D03*
X86267500Y-116768750D03*
X86267500Y-117268750D03*
X86267500Y-117768750D03*
X86267500Y-118268750D03*
X86267500Y-118768750D03*
X86267500Y-119268750D03*
X86267500Y-119768750D03*
X86267500Y-120268750D03*
D43*
X87680000Y-121681250D03*
X88180000Y-121681250D03*
X88680000Y-121681250D03*
X89180000Y-121681250D03*
X89680000Y-121681250D03*
X90180000Y-121681250D03*
X90680000Y-121681250D03*
X91180000Y-121681250D03*
X91680000Y-121681250D03*
X92180000Y-121681250D03*
X92680000Y-121681250D03*
X93180000Y-121681250D03*
D42*
X94592500Y-120268750D03*
X94592500Y-119768750D03*
X94592500Y-119268750D03*
X94592500Y-118768750D03*
X94592500Y-118268750D03*
X94592500Y-117768750D03*
X94592500Y-117268750D03*
X94592500Y-116768750D03*
X94592500Y-116268750D03*
X94592500Y-115768750D03*
X94592500Y-115268750D03*
X94592500Y-114768750D03*
D43*
X93180000Y-113356250D03*
X92680000Y-113356250D03*
X92180000Y-113356250D03*
X91680000Y-113356250D03*
X91180000Y-113356250D03*
X90680000Y-113356250D03*
X90180000Y-113356250D03*
X89680000Y-113356250D03*
X89180000Y-113356250D03*
X88680000Y-113356250D03*
X88180000Y-113356250D03*
X87680000Y-113356250D03*
%TD*%
D25*
%TO.C,R102*%
X75650000Y-105950000D03*
X75650000Y-104125000D03*
%TD*%
%TO.C,R802*%
X73380238Y-72625000D03*
X73380238Y-70800000D03*
%TD*%
%TO.C,R302*%
X84060000Y-134312500D03*
X84060000Y-132487500D03*
%TD*%
D22*
%TO.C,C117*%
X107967500Y-60118750D03*
X106067500Y-60118750D03*
%TD*%
D17*
%TO.C,C116*%
X103930000Y-78418750D03*
X103930000Y-73418750D03*
%TD*%
%TO.C,C506*%
X131430000Y-62718750D03*
X131430000Y-57718750D03*
%TD*%
%TO.C,C501*%
X150630000Y-47618750D03*
X145630000Y-47618750D03*
%TD*%
D25*
%TO.C,R902*%
X73395238Y-57093184D03*
X73395238Y-55268184D03*
%TD*%
D15*
%TO.C,R106*%
X51312500Y-121200000D03*
X49487500Y-121200000D03*
%TD*%
D32*
%TO.C,J102*%
X48760000Y-102422500D03*
D19*
X53840000Y-102422500D03*
%TD*%
D32*
%TO.C,J110*%
X80210000Y-83041250D03*
D19*
X85290000Y-83041250D03*
X90370000Y-83041250D03*
X95450000Y-83041250D03*
%TD*%
D41*
%TO.C,U1101*%
X122160000Y-115462500D03*
X124700000Y-115462500D03*
X124700000Y-105932500D03*
X122160000Y-105932500D03*
%TD*%
D25*
%TO.C,R1101*%
X128230000Y-115980000D03*
X128230000Y-114155000D03*
%TD*%
D27*
%TO.C,U1001*%
X59535000Y-83530000D03*
X59535000Y-86070000D03*
X69065000Y-86070000D03*
X69065000Y-83530000D03*
%TD*%
D40*
%TO.C,Q102*%
X54662500Y-124450000D03*
X54662500Y-126350000D03*
X56537500Y-125400000D03*
%TD*%
D32*
%TO.C,J106*%
X80270000Y-66557500D03*
D19*
X85350000Y-66557500D03*
X90430000Y-66557500D03*
X95510000Y-66557500D03*
%TD*%
D16*
%TO.C,C505*%
X120230000Y-66718750D03*
D17*
X117730000Y-66718750D03*
%TD*%
D12*
%TO.C,J107*%
X121577500Y-148160000D03*
D13*
X121577500Y-153240000D03*
%TD*%
D25*
%TO.C,R203*%
X112900000Y-100100000D03*
X112900000Y-98275000D03*
%TD*%
D36*
%TO.C,U401*%
X91180000Y-131708750D03*
X91180000Y-132978750D03*
X91180000Y-134248750D03*
X91180000Y-135518750D03*
X96130000Y-135518750D03*
X96130000Y-134248750D03*
X96130000Y-132978750D03*
X96130000Y-131708750D03*
%TD*%
D32*
%TO.C,J105*%
X80270000Y-53280000D03*
D19*
X85350000Y-53280000D03*
X90430000Y-53280000D03*
X95510000Y-53280000D03*
%TD*%
D26*
%TO.C,C102*%
X74250000Y-122850000D03*
X76150000Y-122850000D03*
%TD*%
D18*
%TO.C,J301*%
X152930000Y-82374687D03*
D19*
X147850000Y-82374687D03*
X142770000Y-82374687D03*
X137690000Y-82374687D03*
%TD*%
D20*
%TO.C,R401*%
X95172500Y-138313750D03*
X96997500Y-138313750D03*
%TD*%
D25*
%TO.C,R1202*%
X128780000Y-106390000D03*
X128780000Y-104565000D03*
%TD*%
D22*
%TO.C,C105*%
X71850000Y-108450000D03*
X69950000Y-108450000D03*
%TD*%
D20*
%TO.C,R301*%
X79147500Y-138318750D03*
X80972500Y-138318750D03*
%TD*%
D15*
%TO.C,R1001*%
X59565238Y-79801816D03*
X57740238Y-79801816D03*
%TD*%
D24*
%TO.C,R1201*%
X122130000Y-91415000D03*
X122130000Y-93240000D03*
%TD*%
D15*
%TO.C,R105*%
X75775000Y-108450000D03*
X73950000Y-108450000D03*
%TD*%
%TO.C,R303*%
X76522500Y-141328750D03*
X74697500Y-141328750D03*
%TD*%
D16*
%TO.C,C703*%
X101060112Y-98243750D03*
D17*
X98560112Y-98243750D03*
%TD*%
D37*
%TO.C,J601*%
X57000000Y-150700000D03*
D44*
X57000000Y-148200000D03*
X55000000Y-148200000D03*
X55000000Y-150700000D03*
D45*
X52290000Y-143430000D03*
X52290000Y-155470000D03*
%TD*%
D18*
%TO.C,J501*%
X152930000Y-56518750D03*
D19*
X147850000Y-56518750D03*
%TD*%
D46*
%TO.C,D502*%
X125030000Y-66518750D03*
X129030000Y-66518750D03*
%TD*%
D22*
%TO.C,C108*%
X76500000Y-96800000D03*
X74600000Y-96800000D03*
%TD*%
D16*
%TO.C,C502*%
X138630000Y-56623863D03*
D17*
X138630000Y-54123863D03*
%TD*%
%TO.C,C503*%
X141130000Y-61518750D03*
X136130000Y-61518750D03*
%TD*%
M02*
