%TF.GenerationSoftware,KiCad,Pcbnew,(6.0.8)*%
%TF.CreationDate,2022-10-21T20:54:02+03:00*%
%TF.ProjectId,commboard,636f6d6d-626f-4617-9264-2e6b69636164,rev?*%
%TF.SameCoordinates,Original*%
%TF.FileFunction,Legend,Bot*%
%TF.FilePolarity,Positive*%
%FSLAX46Y46*%
G04 Gerber Fmt 4.6, Leading zero omitted, Abs format (unit mm)*
G04 Created by KiCad (PCBNEW (6.0.8)) date 2022-10-21 20:54:02*
%MOMM*%
%LPD*%
G01*
G04 APERTURE LIST*
%ADD10C,0.150000*%
%ADD11C,0.120000*%
G04 APERTURE END LIST*
D10*
%TO.C,C103*%
X89349047Y-117555892D02*
X89396666Y-117603511D01*
X89539523Y-117651130D01*
X89634761Y-117651130D01*
X89777619Y-117603511D01*
X89872857Y-117508273D01*
X89920476Y-117413035D01*
X89968095Y-117222559D01*
X89968095Y-117079702D01*
X89920476Y-116889226D01*
X89872857Y-116793988D01*
X89777619Y-116698750D01*
X89634761Y-116651130D01*
X89539523Y-116651130D01*
X89396666Y-116698750D01*
X89349047Y-116746369D01*
X88396666Y-117651130D02*
X88968095Y-117651130D01*
X88682380Y-117651130D02*
X88682380Y-116651130D01*
X88777619Y-116793988D01*
X88872857Y-116889226D01*
X88968095Y-116936845D01*
X87777619Y-116651130D02*
X87682380Y-116651130D01*
X87587142Y-116698750D01*
X87539523Y-116746369D01*
X87491904Y-116841607D01*
X87444285Y-117032083D01*
X87444285Y-117270178D01*
X87491904Y-117460654D01*
X87539523Y-117555892D01*
X87587142Y-117603511D01*
X87682380Y-117651130D01*
X87777619Y-117651130D01*
X87872857Y-117603511D01*
X87920476Y-117555892D01*
X87968095Y-117460654D01*
X88015714Y-117270178D01*
X88015714Y-117032083D01*
X87968095Y-116841607D01*
X87920476Y-116746369D01*
X87872857Y-116698750D01*
X87777619Y-116651130D01*
X87110952Y-116651130D02*
X86491904Y-116651130D01*
X86825238Y-117032083D01*
X86682380Y-117032083D01*
X86587142Y-117079702D01*
X86539523Y-117127321D01*
X86491904Y-117222559D01*
X86491904Y-117460654D01*
X86539523Y-117555892D01*
X86587142Y-117603511D01*
X86682380Y-117651130D01*
X86968095Y-117651130D01*
X87063333Y-117603511D01*
X87110952Y-117555892D01*
%TO.C,R601*%
X64206547Y-152802380D02*
X64539880Y-152326190D01*
X64777976Y-152802380D02*
X64777976Y-151802380D01*
X64397023Y-151802380D01*
X64301785Y-151850000D01*
X64254166Y-151897619D01*
X64206547Y-151992857D01*
X64206547Y-152135714D01*
X64254166Y-152230952D01*
X64301785Y-152278571D01*
X64397023Y-152326190D01*
X64777976Y-152326190D01*
X63349404Y-151802380D02*
X63539880Y-151802380D01*
X63635119Y-151850000D01*
X63682738Y-151897619D01*
X63777976Y-152040476D01*
X63825595Y-152230952D01*
X63825595Y-152611904D01*
X63777976Y-152707142D01*
X63730357Y-152754761D01*
X63635119Y-152802380D01*
X63444642Y-152802380D01*
X63349404Y-152754761D01*
X63301785Y-152707142D01*
X63254166Y-152611904D01*
X63254166Y-152373809D01*
X63301785Y-152278571D01*
X63349404Y-152230952D01*
X63444642Y-152183333D01*
X63635119Y-152183333D01*
X63730357Y-152230952D01*
X63777976Y-152278571D01*
X63825595Y-152373809D01*
X62635119Y-151802380D02*
X62539880Y-151802380D01*
X62444642Y-151850000D01*
X62397023Y-151897619D01*
X62349404Y-151992857D01*
X62301785Y-152183333D01*
X62301785Y-152421428D01*
X62349404Y-152611904D01*
X62397023Y-152707142D01*
X62444642Y-152754761D01*
X62539880Y-152802380D01*
X62635119Y-152802380D01*
X62730357Y-152754761D01*
X62777976Y-152707142D01*
X62825595Y-152611904D01*
X62873214Y-152421428D01*
X62873214Y-152183333D01*
X62825595Y-151992857D01*
X62777976Y-151897619D01*
X62730357Y-151850000D01*
X62635119Y-151802380D01*
X61349404Y-152802380D02*
X61920833Y-152802380D01*
X61635119Y-152802380D02*
X61635119Y-151802380D01*
X61730357Y-151945238D01*
X61825595Y-152040476D01*
X61920833Y-152088095D01*
%TO.C,R116*%
X63692380Y-90093452D02*
X63216190Y-89760119D01*
X63692380Y-89522023D02*
X62692380Y-89522023D01*
X62692380Y-89902976D01*
X62740000Y-89998214D01*
X62787619Y-90045833D01*
X62882857Y-90093452D01*
X63025714Y-90093452D01*
X63120952Y-90045833D01*
X63168571Y-89998214D01*
X63216190Y-89902976D01*
X63216190Y-89522023D01*
X63692380Y-91045833D02*
X63692380Y-90474404D01*
X63692380Y-90760119D02*
X62692380Y-90760119D01*
X62835238Y-90664880D01*
X62930476Y-90569642D01*
X62978095Y-90474404D01*
X63692380Y-91998214D02*
X63692380Y-91426785D01*
X63692380Y-91712500D02*
X62692380Y-91712500D01*
X62835238Y-91617261D01*
X62930476Y-91522023D01*
X62978095Y-91426785D01*
X62692380Y-92855357D02*
X62692380Y-92664880D01*
X62740000Y-92569642D01*
X62787619Y-92522023D01*
X62930476Y-92426785D01*
X63120952Y-92379166D01*
X63501904Y-92379166D01*
X63597142Y-92426785D01*
X63644761Y-92474404D01*
X63692380Y-92569642D01*
X63692380Y-92760119D01*
X63644761Y-92855357D01*
X63597142Y-92902976D01*
X63501904Y-92950595D01*
X63263809Y-92950595D01*
X63168571Y-92902976D01*
X63120952Y-92855357D01*
X63073333Y-92760119D01*
X63073333Y-92569642D01*
X63120952Y-92474404D01*
X63168571Y-92426785D01*
X63263809Y-92379166D01*
%TO.C,R117*%
X67392380Y-90024702D02*
X66916190Y-89691369D01*
X67392380Y-89453273D02*
X66392380Y-89453273D01*
X66392380Y-89834226D01*
X66440000Y-89929464D01*
X66487619Y-89977083D01*
X66582857Y-90024702D01*
X66725714Y-90024702D01*
X66820952Y-89977083D01*
X66868571Y-89929464D01*
X66916190Y-89834226D01*
X66916190Y-89453273D01*
X67392380Y-90977083D02*
X67392380Y-90405654D01*
X67392380Y-90691369D02*
X66392380Y-90691369D01*
X66535238Y-90596130D01*
X66630476Y-90500892D01*
X66678095Y-90405654D01*
X67392380Y-91929464D02*
X67392380Y-91358035D01*
X67392380Y-91643750D02*
X66392380Y-91643750D01*
X66535238Y-91548511D01*
X66630476Y-91453273D01*
X66678095Y-91358035D01*
X66392380Y-92262797D02*
X66392380Y-92929464D01*
X67392380Y-92500892D01*
%TO.C,R118*%
X72492380Y-89980952D02*
X72016190Y-89647619D01*
X72492380Y-89409523D02*
X71492380Y-89409523D01*
X71492380Y-89790476D01*
X71540000Y-89885714D01*
X71587619Y-89933333D01*
X71682857Y-89980952D01*
X71825714Y-89980952D01*
X71920952Y-89933333D01*
X71968571Y-89885714D01*
X72016190Y-89790476D01*
X72016190Y-89409523D01*
X72492380Y-90933333D02*
X72492380Y-90361904D01*
X72492380Y-90647619D02*
X71492380Y-90647619D01*
X71635238Y-90552380D01*
X71730476Y-90457142D01*
X71778095Y-90361904D01*
X72492380Y-91885714D02*
X72492380Y-91314285D01*
X72492380Y-91600000D02*
X71492380Y-91600000D01*
X71635238Y-91504761D01*
X71730476Y-91409523D01*
X71778095Y-91314285D01*
X71920952Y-92457142D02*
X71873333Y-92361904D01*
X71825714Y-92314285D01*
X71730476Y-92266666D01*
X71682857Y-92266666D01*
X71587619Y-92314285D01*
X71540000Y-92361904D01*
X71492380Y-92457142D01*
X71492380Y-92647619D01*
X71540000Y-92742857D01*
X71587619Y-92790476D01*
X71682857Y-92838095D01*
X71730476Y-92838095D01*
X71825714Y-92790476D01*
X71873333Y-92742857D01*
X71920952Y-92647619D01*
X71920952Y-92457142D01*
X71968571Y-92361904D01*
X72016190Y-92314285D01*
X72111428Y-92266666D01*
X72301904Y-92266666D01*
X72397142Y-92314285D01*
X72444761Y-92361904D01*
X72492380Y-92457142D01*
X72492380Y-92647619D01*
X72444761Y-92742857D01*
X72397142Y-92790476D01*
X72301904Y-92838095D01*
X72111428Y-92838095D01*
X72016190Y-92790476D01*
X71968571Y-92742857D01*
X71920952Y-92647619D01*
%TO.C,U103*%
X134452380Y-136685714D02*
X135261904Y-136685714D01*
X135357142Y-136733333D01*
X135404761Y-136780952D01*
X135452380Y-136876190D01*
X135452380Y-137066666D01*
X135404761Y-137161904D01*
X135357142Y-137209523D01*
X135261904Y-137257142D01*
X134452380Y-137257142D01*
X135452380Y-138257142D02*
X135452380Y-137685714D01*
X135452380Y-137971428D02*
X134452380Y-137971428D01*
X134595238Y-137876190D01*
X134690476Y-137780952D01*
X134738095Y-137685714D01*
X134452380Y-138876190D02*
X134452380Y-138971428D01*
X134500000Y-139066666D01*
X134547619Y-139114285D01*
X134642857Y-139161904D01*
X134833333Y-139209523D01*
X135071428Y-139209523D01*
X135261904Y-139161904D01*
X135357142Y-139114285D01*
X135404761Y-139066666D01*
X135452380Y-138971428D01*
X135452380Y-138876190D01*
X135404761Y-138780952D01*
X135357142Y-138733333D01*
X135261904Y-138685714D01*
X135071428Y-138638095D01*
X134833333Y-138638095D01*
X134642857Y-138685714D01*
X134547619Y-138733333D01*
X134500000Y-138780952D01*
X134452380Y-138876190D01*
X134452380Y-139542857D02*
X134452380Y-140161904D01*
X134833333Y-139828571D01*
X134833333Y-139971428D01*
X134880952Y-140066666D01*
X134928571Y-140114285D01*
X135023809Y-140161904D01*
X135261904Y-140161904D01*
X135357142Y-140114285D01*
X135404761Y-140066666D01*
X135452380Y-139971428D01*
X135452380Y-139685714D01*
X135404761Y-139590476D01*
X135357142Y-139542857D01*
%TO.C,R103*%
X90433611Y-111852380D02*
X90766944Y-111376190D01*
X91005040Y-111852380D02*
X91005040Y-110852380D01*
X90624087Y-110852380D01*
X90528849Y-110900000D01*
X90481230Y-110947619D01*
X90433611Y-111042857D01*
X90433611Y-111185714D01*
X90481230Y-111280952D01*
X90528849Y-111328571D01*
X90624087Y-111376190D01*
X91005040Y-111376190D01*
X89481230Y-111852380D02*
X90052659Y-111852380D01*
X89766944Y-111852380D02*
X89766944Y-110852380D01*
X89862183Y-110995238D01*
X89957421Y-111090476D01*
X90052659Y-111138095D01*
X88862183Y-110852380D02*
X88766944Y-110852380D01*
X88671706Y-110900000D01*
X88624087Y-110947619D01*
X88576468Y-111042857D01*
X88528849Y-111233333D01*
X88528849Y-111471428D01*
X88576468Y-111661904D01*
X88624087Y-111757142D01*
X88671706Y-111804761D01*
X88766944Y-111852380D01*
X88862183Y-111852380D01*
X88957421Y-111804761D01*
X89005040Y-111757142D01*
X89052659Y-111661904D01*
X89100278Y-111471428D01*
X89100278Y-111233333D01*
X89052659Y-111042857D01*
X89005040Y-110947619D01*
X88957421Y-110900000D01*
X88862183Y-110852380D01*
X88195516Y-110852380D02*
X87576468Y-110852380D01*
X87909802Y-111233333D01*
X87766944Y-111233333D01*
X87671706Y-111280952D01*
X87624087Y-111328571D01*
X87576468Y-111423809D01*
X87576468Y-111661904D01*
X87624087Y-111757142D01*
X87671706Y-111804761D01*
X87766944Y-111852380D01*
X88052659Y-111852380D01*
X88147897Y-111804761D01*
X88195516Y-111757142D01*
%TO.C,R113*%
X133444047Y-135552380D02*
X133777380Y-135076190D01*
X134015476Y-135552380D02*
X134015476Y-134552380D01*
X133634523Y-134552380D01*
X133539285Y-134600000D01*
X133491666Y-134647619D01*
X133444047Y-134742857D01*
X133444047Y-134885714D01*
X133491666Y-134980952D01*
X133539285Y-135028571D01*
X133634523Y-135076190D01*
X134015476Y-135076190D01*
X132491666Y-135552380D02*
X133063095Y-135552380D01*
X132777380Y-135552380D02*
X132777380Y-134552380D01*
X132872619Y-134695238D01*
X132967857Y-134790476D01*
X133063095Y-134838095D01*
X131539285Y-135552380D02*
X132110714Y-135552380D01*
X131825000Y-135552380D02*
X131825000Y-134552380D01*
X131920238Y-134695238D01*
X132015476Y-134790476D01*
X132110714Y-134838095D01*
X131205952Y-134552380D02*
X130586904Y-134552380D01*
X130920238Y-134933333D01*
X130777380Y-134933333D01*
X130682142Y-134980952D01*
X130634523Y-135028571D01*
X130586904Y-135123809D01*
X130586904Y-135361904D01*
X130634523Y-135457142D01*
X130682142Y-135504761D01*
X130777380Y-135552380D01*
X131063095Y-135552380D01*
X131158333Y-135504761D01*
X131205952Y-135457142D01*
%TO.C,C101*%
X93949047Y-114195892D02*
X93996666Y-114243511D01*
X94139523Y-114291130D01*
X94234761Y-114291130D01*
X94377619Y-114243511D01*
X94472857Y-114148273D01*
X94520476Y-114053035D01*
X94568095Y-113862559D01*
X94568095Y-113719702D01*
X94520476Y-113529226D01*
X94472857Y-113433988D01*
X94377619Y-113338750D01*
X94234761Y-113291130D01*
X94139523Y-113291130D01*
X93996666Y-113338750D01*
X93949047Y-113386369D01*
X92996666Y-114291130D02*
X93568095Y-114291130D01*
X93282380Y-114291130D02*
X93282380Y-113291130D01*
X93377619Y-113433988D01*
X93472857Y-113529226D01*
X93568095Y-113576845D01*
X92377619Y-113291130D02*
X92282380Y-113291130D01*
X92187142Y-113338750D01*
X92139523Y-113386369D01*
X92091904Y-113481607D01*
X92044285Y-113672083D01*
X92044285Y-113910178D01*
X92091904Y-114100654D01*
X92139523Y-114195892D01*
X92187142Y-114243511D01*
X92282380Y-114291130D01*
X92377619Y-114291130D01*
X92472857Y-114243511D01*
X92520476Y-114195892D01*
X92568095Y-114100654D01*
X92615714Y-113910178D01*
X92615714Y-113672083D01*
X92568095Y-113481607D01*
X92520476Y-113386369D01*
X92472857Y-113338750D01*
X92377619Y-113291130D01*
X91091904Y-114291130D02*
X91663333Y-114291130D01*
X91377619Y-114291130D02*
X91377619Y-113291130D01*
X91472857Y-113433988D01*
X91568095Y-113529226D01*
X91663333Y-113576845D01*
%TO.C,C104*%
X89249047Y-121455892D02*
X89296666Y-121503511D01*
X89439523Y-121551130D01*
X89534761Y-121551130D01*
X89677619Y-121503511D01*
X89772857Y-121408273D01*
X89820476Y-121313035D01*
X89868095Y-121122559D01*
X89868095Y-120979702D01*
X89820476Y-120789226D01*
X89772857Y-120693988D01*
X89677619Y-120598750D01*
X89534761Y-120551130D01*
X89439523Y-120551130D01*
X89296666Y-120598750D01*
X89249047Y-120646369D01*
X88296666Y-121551130D02*
X88868095Y-121551130D01*
X88582380Y-121551130D02*
X88582380Y-120551130D01*
X88677619Y-120693988D01*
X88772857Y-120789226D01*
X88868095Y-120836845D01*
X87677619Y-120551130D02*
X87582380Y-120551130D01*
X87487142Y-120598750D01*
X87439523Y-120646369D01*
X87391904Y-120741607D01*
X87344285Y-120932083D01*
X87344285Y-121170178D01*
X87391904Y-121360654D01*
X87439523Y-121455892D01*
X87487142Y-121503511D01*
X87582380Y-121551130D01*
X87677619Y-121551130D01*
X87772857Y-121503511D01*
X87820476Y-121455892D01*
X87868095Y-121360654D01*
X87915714Y-121170178D01*
X87915714Y-120932083D01*
X87868095Y-120741607D01*
X87820476Y-120646369D01*
X87772857Y-120598750D01*
X87677619Y-120551130D01*
X86487142Y-120884464D02*
X86487142Y-121551130D01*
X86725238Y-120503511D02*
X86963333Y-121217797D01*
X86344285Y-121217797D01*
%TO.C,R112*%
X133306547Y-134802380D02*
X133639880Y-134326190D01*
X133877976Y-134802380D02*
X133877976Y-133802380D01*
X133497023Y-133802380D01*
X133401785Y-133850000D01*
X133354166Y-133897619D01*
X133306547Y-133992857D01*
X133306547Y-134135714D01*
X133354166Y-134230952D01*
X133401785Y-134278571D01*
X133497023Y-134326190D01*
X133877976Y-134326190D01*
X132354166Y-134802380D02*
X132925595Y-134802380D01*
X132639880Y-134802380D02*
X132639880Y-133802380D01*
X132735119Y-133945238D01*
X132830357Y-134040476D01*
X132925595Y-134088095D01*
X131401785Y-134802380D02*
X131973214Y-134802380D01*
X131687500Y-134802380D02*
X131687500Y-133802380D01*
X131782738Y-133945238D01*
X131877976Y-134040476D01*
X131973214Y-134088095D01*
X131020833Y-133897619D02*
X130973214Y-133850000D01*
X130877976Y-133802380D01*
X130639880Y-133802380D01*
X130544642Y-133850000D01*
X130497023Y-133897619D01*
X130449404Y-133992857D01*
X130449404Y-134088095D01*
X130497023Y-134230952D01*
X131068452Y-134802380D01*
X130449404Y-134802380D01*
%TO.C,F101*%
X123385714Y-141748571D02*
X123719047Y-141748571D01*
X123719047Y-142272380D02*
X123719047Y-141272380D01*
X123242857Y-141272380D01*
X122338095Y-142272380D02*
X122909523Y-142272380D01*
X122623809Y-142272380D02*
X122623809Y-141272380D01*
X122719047Y-141415238D01*
X122814285Y-141510476D01*
X122909523Y-141558095D01*
X121719047Y-141272380D02*
X121623809Y-141272380D01*
X121528571Y-141320000D01*
X121480952Y-141367619D01*
X121433333Y-141462857D01*
X121385714Y-141653333D01*
X121385714Y-141891428D01*
X121433333Y-142081904D01*
X121480952Y-142177142D01*
X121528571Y-142224761D01*
X121623809Y-142272380D01*
X121719047Y-142272380D01*
X121814285Y-142224761D01*
X121861904Y-142177142D01*
X121909523Y-142081904D01*
X121957142Y-141891428D01*
X121957142Y-141653333D01*
X121909523Y-141462857D01*
X121861904Y-141367619D01*
X121814285Y-141320000D01*
X121719047Y-141272380D01*
X120433333Y-142272380D02*
X121004761Y-142272380D01*
X120719047Y-142272380D02*
X120719047Y-141272380D01*
X120814285Y-141415238D01*
X120909523Y-141510476D01*
X121004761Y-141558095D01*
%TO.C,C106*%
X93849047Y-118095892D02*
X93896666Y-118143511D01*
X94039523Y-118191130D01*
X94134761Y-118191130D01*
X94277619Y-118143511D01*
X94372857Y-118048273D01*
X94420476Y-117953035D01*
X94468095Y-117762559D01*
X94468095Y-117619702D01*
X94420476Y-117429226D01*
X94372857Y-117333988D01*
X94277619Y-117238750D01*
X94134761Y-117191130D01*
X94039523Y-117191130D01*
X93896666Y-117238750D01*
X93849047Y-117286369D01*
X92896666Y-118191130D02*
X93468095Y-118191130D01*
X93182380Y-118191130D02*
X93182380Y-117191130D01*
X93277619Y-117333988D01*
X93372857Y-117429226D01*
X93468095Y-117476845D01*
X92277619Y-117191130D02*
X92182380Y-117191130D01*
X92087142Y-117238750D01*
X92039523Y-117286369D01*
X91991904Y-117381607D01*
X91944285Y-117572083D01*
X91944285Y-117810178D01*
X91991904Y-118000654D01*
X92039523Y-118095892D01*
X92087142Y-118143511D01*
X92182380Y-118191130D01*
X92277619Y-118191130D01*
X92372857Y-118143511D01*
X92420476Y-118095892D01*
X92468095Y-118000654D01*
X92515714Y-117810178D01*
X92515714Y-117572083D01*
X92468095Y-117381607D01*
X92420476Y-117286369D01*
X92372857Y-117238750D01*
X92277619Y-117191130D01*
X91087142Y-117191130D02*
X91277619Y-117191130D01*
X91372857Y-117238750D01*
X91420476Y-117286369D01*
X91515714Y-117429226D01*
X91563333Y-117619702D01*
X91563333Y-118000654D01*
X91515714Y-118095892D01*
X91468095Y-118143511D01*
X91372857Y-118191130D01*
X91182380Y-118191130D01*
X91087142Y-118143511D01*
X91039523Y-118095892D01*
X90991904Y-118000654D01*
X90991904Y-117762559D01*
X91039523Y-117667321D01*
X91087142Y-117619702D01*
X91182380Y-117572083D01*
X91372857Y-117572083D01*
X91468095Y-117619702D01*
X91515714Y-117667321D01*
X91563333Y-117762559D01*
%TO.C,R603*%
X64206547Y-147002380D02*
X64539880Y-146526190D01*
X64777976Y-147002380D02*
X64777976Y-146002380D01*
X64397023Y-146002380D01*
X64301785Y-146050000D01*
X64254166Y-146097619D01*
X64206547Y-146192857D01*
X64206547Y-146335714D01*
X64254166Y-146430952D01*
X64301785Y-146478571D01*
X64397023Y-146526190D01*
X64777976Y-146526190D01*
X63349404Y-146002380D02*
X63539880Y-146002380D01*
X63635119Y-146050000D01*
X63682738Y-146097619D01*
X63777976Y-146240476D01*
X63825595Y-146430952D01*
X63825595Y-146811904D01*
X63777976Y-146907142D01*
X63730357Y-146954761D01*
X63635119Y-147002380D01*
X63444642Y-147002380D01*
X63349404Y-146954761D01*
X63301785Y-146907142D01*
X63254166Y-146811904D01*
X63254166Y-146573809D01*
X63301785Y-146478571D01*
X63349404Y-146430952D01*
X63444642Y-146383333D01*
X63635119Y-146383333D01*
X63730357Y-146430952D01*
X63777976Y-146478571D01*
X63825595Y-146573809D01*
X62635119Y-146002380D02*
X62539880Y-146002380D01*
X62444642Y-146050000D01*
X62397023Y-146097619D01*
X62349404Y-146192857D01*
X62301785Y-146383333D01*
X62301785Y-146621428D01*
X62349404Y-146811904D01*
X62397023Y-146907142D01*
X62444642Y-146954761D01*
X62539880Y-147002380D01*
X62635119Y-147002380D01*
X62730357Y-146954761D01*
X62777976Y-146907142D01*
X62825595Y-146811904D01*
X62873214Y-146621428D01*
X62873214Y-146383333D01*
X62825595Y-146192857D01*
X62777976Y-146097619D01*
X62730357Y-146050000D01*
X62635119Y-146002380D01*
X61968452Y-146002380D02*
X61349404Y-146002380D01*
X61682738Y-146383333D01*
X61539880Y-146383333D01*
X61444642Y-146430952D01*
X61397023Y-146478571D01*
X61349404Y-146573809D01*
X61349404Y-146811904D01*
X61397023Y-146907142D01*
X61444642Y-146954761D01*
X61539880Y-147002380D01*
X61825595Y-147002380D01*
X61920833Y-146954761D01*
X61968452Y-146907142D01*
%TO.C,U701*%
X105657380Y-87329464D02*
X106466904Y-87329464D01*
X106562142Y-87377083D01*
X106609761Y-87424702D01*
X106657380Y-87519940D01*
X106657380Y-87710416D01*
X106609761Y-87805654D01*
X106562142Y-87853273D01*
X106466904Y-87900892D01*
X105657380Y-87900892D01*
X105657380Y-88281845D02*
X105657380Y-88948511D01*
X106657380Y-88519940D01*
X105657380Y-89519940D02*
X105657380Y-89615178D01*
X105705000Y-89710416D01*
X105752619Y-89758035D01*
X105847857Y-89805654D01*
X106038333Y-89853273D01*
X106276428Y-89853273D01*
X106466904Y-89805654D01*
X106562142Y-89758035D01*
X106609761Y-89710416D01*
X106657380Y-89615178D01*
X106657380Y-89519940D01*
X106609761Y-89424702D01*
X106562142Y-89377083D01*
X106466904Y-89329464D01*
X106276428Y-89281845D01*
X106038333Y-89281845D01*
X105847857Y-89329464D01*
X105752619Y-89377083D01*
X105705000Y-89424702D01*
X105657380Y-89519940D01*
X106657380Y-90805654D02*
X106657380Y-90234226D01*
X106657380Y-90519940D02*
X105657380Y-90519940D01*
X105800238Y-90424702D01*
X105895476Y-90329464D01*
X105943095Y-90234226D01*
%TO.C,R604*%
X64206547Y-144202380D02*
X64539880Y-143726190D01*
X64777976Y-144202380D02*
X64777976Y-143202380D01*
X64397023Y-143202380D01*
X64301785Y-143250000D01*
X64254166Y-143297619D01*
X64206547Y-143392857D01*
X64206547Y-143535714D01*
X64254166Y-143630952D01*
X64301785Y-143678571D01*
X64397023Y-143726190D01*
X64777976Y-143726190D01*
X63349404Y-143202380D02*
X63539880Y-143202380D01*
X63635119Y-143250000D01*
X63682738Y-143297619D01*
X63777976Y-143440476D01*
X63825595Y-143630952D01*
X63825595Y-144011904D01*
X63777976Y-144107142D01*
X63730357Y-144154761D01*
X63635119Y-144202380D01*
X63444642Y-144202380D01*
X63349404Y-144154761D01*
X63301785Y-144107142D01*
X63254166Y-144011904D01*
X63254166Y-143773809D01*
X63301785Y-143678571D01*
X63349404Y-143630952D01*
X63444642Y-143583333D01*
X63635119Y-143583333D01*
X63730357Y-143630952D01*
X63777976Y-143678571D01*
X63825595Y-143773809D01*
X62635119Y-143202380D02*
X62539880Y-143202380D01*
X62444642Y-143250000D01*
X62397023Y-143297619D01*
X62349404Y-143392857D01*
X62301785Y-143583333D01*
X62301785Y-143821428D01*
X62349404Y-144011904D01*
X62397023Y-144107142D01*
X62444642Y-144154761D01*
X62539880Y-144202380D01*
X62635119Y-144202380D01*
X62730357Y-144154761D01*
X62777976Y-144107142D01*
X62825595Y-144011904D01*
X62873214Y-143821428D01*
X62873214Y-143583333D01*
X62825595Y-143392857D01*
X62777976Y-143297619D01*
X62730357Y-143250000D01*
X62635119Y-143202380D01*
X61444642Y-143535714D02*
X61444642Y-144202380D01*
X61682738Y-143154761D02*
X61920833Y-143869047D01*
X61301785Y-143869047D01*
%TO.C,R602*%
X64194047Y-141002380D02*
X64527380Y-140526190D01*
X64765476Y-141002380D02*
X64765476Y-140002380D01*
X64384523Y-140002380D01*
X64289285Y-140050000D01*
X64241666Y-140097619D01*
X64194047Y-140192857D01*
X64194047Y-140335714D01*
X64241666Y-140430952D01*
X64289285Y-140478571D01*
X64384523Y-140526190D01*
X64765476Y-140526190D01*
X63336904Y-140002380D02*
X63527380Y-140002380D01*
X63622619Y-140050000D01*
X63670238Y-140097619D01*
X63765476Y-140240476D01*
X63813095Y-140430952D01*
X63813095Y-140811904D01*
X63765476Y-140907142D01*
X63717857Y-140954761D01*
X63622619Y-141002380D01*
X63432142Y-141002380D01*
X63336904Y-140954761D01*
X63289285Y-140907142D01*
X63241666Y-140811904D01*
X63241666Y-140573809D01*
X63289285Y-140478571D01*
X63336904Y-140430952D01*
X63432142Y-140383333D01*
X63622619Y-140383333D01*
X63717857Y-140430952D01*
X63765476Y-140478571D01*
X63813095Y-140573809D01*
X62622619Y-140002380D02*
X62527380Y-140002380D01*
X62432142Y-140050000D01*
X62384523Y-140097619D01*
X62336904Y-140192857D01*
X62289285Y-140383333D01*
X62289285Y-140621428D01*
X62336904Y-140811904D01*
X62384523Y-140907142D01*
X62432142Y-140954761D01*
X62527380Y-141002380D01*
X62622619Y-141002380D01*
X62717857Y-140954761D01*
X62765476Y-140907142D01*
X62813095Y-140811904D01*
X62860714Y-140621428D01*
X62860714Y-140383333D01*
X62813095Y-140192857D01*
X62765476Y-140097619D01*
X62717857Y-140050000D01*
X62622619Y-140002380D01*
X61908333Y-140097619D02*
X61860714Y-140050000D01*
X61765476Y-140002380D01*
X61527380Y-140002380D01*
X61432142Y-140050000D01*
X61384523Y-140097619D01*
X61336904Y-140192857D01*
X61336904Y-140288095D01*
X61384523Y-140430952D01*
X61955952Y-141002380D01*
X61336904Y-141002380D01*
%TO.C,C109*%
X83669047Y-152137142D02*
X83716666Y-152184761D01*
X83859523Y-152232380D01*
X83954761Y-152232380D01*
X84097619Y-152184761D01*
X84192857Y-152089523D01*
X84240476Y-151994285D01*
X84288095Y-151803809D01*
X84288095Y-151660952D01*
X84240476Y-151470476D01*
X84192857Y-151375238D01*
X84097619Y-151280000D01*
X83954761Y-151232380D01*
X83859523Y-151232380D01*
X83716666Y-151280000D01*
X83669047Y-151327619D01*
X82716666Y-152232380D02*
X83288095Y-152232380D01*
X83002380Y-152232380D02*
X83002380Y-151232380D01*
X83097619Y-151375238D01*
X83192857Y-151470476D01*
X83288095Y-151518095D01*
X82097619Y-151232380D02*
X82002380Y-151232380D01*
X81907142Y-151280000D01*
X81859523Y-151327619D01*
X81811904Y-151422857D01*
X81764285Y-151613333D01*
X81764285Y-151851428D01*
X81811904Y-152041904D01*
X81859523Y-152137142D01*
X81907142Y-152184761D01*
X82002380Y-152232380D01*
X82097619Y-152232380D01*
X82192857Y-152184761D01*
X82240476Y-152137142D01*
X82288095Y-152041904D01*
X82335714Y-151851428D01*
X82335714Y-151613333D01*
X82288095Y-151422857D01*
X82240476Y-151327619D01*
X82192857Y-151280000D01*
X82097619Y-151232380D01*
X81288095Y-152232380D02*
X81097619Y-152232380D01*
X81002380Y-152184761D01*
X80954761Y-152137142D01*
X80859523Y-151994285D01*
X80811904Y-151803809D01*
X80811904Y-151422857D01*
X80859523Y-151327619D01*
X80907142Y-151280000D01*
X81002380Y-151232380D01*
X81192857Y-151232380D01*
X81288095Y-151280000D01*
X81335714Y-151327619D01*
X81383333Y-151422857D01*
X81383333Y-151660952D01*
X81335714Y-151756190D01*
X81288095Y-151803809D01*
X81192857Y-151851428D01*
X81002380Y-151851428D01*
X80907142Y-151803809D01*
X80859523Y-151756190D01*
X80811904Y-151660952D01*
%TO.C,D601*%
X64752976Y-155302380D02*
X64752976Y-154302380D01*
X64514880Y-154302380D01*
X64372023Y-154350000D01*
X64276785Y-154445238D01*
X64229166Y-154540476D01*
X64181547Y-154730952D01*
X64181547Y-154873809D01*
X64229166Y-155064285D01*
X64276785Y-155159523D01*
X64372023Y-155254761D01*
X64514880Y-155302380D01*
X64752976Y-155302380D01*
X63324404Y-154302380D02*
X63514880Y-154302380D01*
X63610119Y-154350000D01*
X63657738Y-154397619D01*
X63752976Y-154540476D01*
X63800595Y-154730952D01*
X63800595Y-155111904D01*
X63752976Y-155207142D01*
X63705357Y-155254761D01*
X63610119Y-155302380D01*
X63419642Y-155302380D01*
X63324404Y-155254761D01*
X63276785Y-155207142D01*
X63229166Y-155111904D01*
X63229166Y-154873809D01*
X63276785Y-154778571D01*
X63324404Y-154730952D01*
X63419642Y-154683333D01*
X63610119Y-154683333D01*
X63705357Y-154730952D01*
X63752976Y-154778571D01*
X63800595Y-154873809D01*
X62610119Y-154302380D02*
X62514880Y-154302380D01*
X62419642Y-154350000D01*
X62372023Y-154397619D01*
X62324404Y-154492857D01*
X62276785Y-154683333D01*
X62276785Y-154921428D01*
X62324404Y-155111904D01*
X62372023Y-155207142D01*
X62419642Y-155254761D01*
X62514880Y-155302380D01*
X62610119Y-155302380D01*
X62705357Y-155254761D01*
X62752976Y-155207142D01*
X62800595Y-155111904D01*
X62848214Y-154921428D01*
X62848214Y-154683333D01*
X62800595Y-154492857D01*
X62752976Y-154397619D01*
X62705357Y-154350000D01*
X62610119Y-154302380D01*
X61324404Y-155302380D02*
X61895833Y-155302380D01*
X61610119Y-155302380D02*
X61610119Y-154302380D01*
X61705357Y-154445238D01*
X61800595Y-154540476D01*
X61895833Y-154588095D01*
D11*
%TO.C,C103*%
X87968748Y-116253750D02*
X88491252Y-116253750D01*
X87968748Y-114783750D02*
X88491252Y-114783750D01*
%TO.C,R601*%
X62860436Y-151435000D02*
X63314564Y-151435000D01*
X62860436Y-149965000D02*
X63314564Y-149965000D01*
%TO.C,R116*%
X62405000Y-94872936D02*
X62405000Y-95327064D01*
X63875000Y-94872936D02*
X63875000Y-95327064D01*
%TO.C,R117*%
X67575000Y-94816686D02*
X67575000Y-95270814D01*
X66105000Y-94816686D02*
X66105000Y-95270814D01*
%TO.C,R118*%
X71205000Y-95214564D02*
X71205000Y-94760436D01*
X72675000Y-95214564D02*
X72675000Y-94760436D01*
%TO.C,U103*%
X135840000Y-138400000D02*
X135840000Y-140350000D01*
X140960000Y-138400000D02*
X140960000Y-136450000D01*
X135840000Y-138400000D02*
X135840000Y-134950000D01*
X140960000Y-138400000D02*
X140960000Y-140350000D01*
%TO.C,R103*%
X89314564Y-112135000D02*
X88860436Y-112135000D01*
X89314564Y-110665000D02*
X88860436Y-110665000D01*
%TO.C,R113*%
X132439564Y-134135000D02*
X131985436Y-134135000D01*
X132439564Y-132665000D02*
X131985436Y-132665000D01*
%TO.C,C101*%
X93091252Y-116253750D02*
X92568748Y-116253750D01*
X93091252Y-114783750D02*
X92568748Y-114783750D01*
%TO.C,C104*%
X87868748Y-120153750D02*
X88391252Y-120153750D01*
X87868748Y-118683750D02*
X88391252Y-118683750D01*
%TO.C,R112*%
X132414564Y-136735000D02*
X131960436Y-136735000D01*
X132414564Y-135265000D02*
X131960436Y-135265000D01*
%TO.C,F101*%
X121497936Y-140910000D02*
X122702064Y-140910000D01*
X121497936Y-139090000D02*
X122702064Y-139090000D01*
%TO.C,C106*%
X92991252Y-120153750D02*
X92468748Y-120153750D01*
X92991252Y-118683750D02*
X92468748Y-118683750D01*
%TO.C,R603*%
X63314564Y-147465000D02*
X62860436Y-147465000D01*
X63314564Y-148935000D02*
X62860436Y-148935000D01*
%TO.C,U701*%
X105490000Y-89043750D02*
X105490000Y-86843750D01*
X100020000Y-89043750D02*
X100020000Y-91243750D01*
X100020000Y-89043750D02*
X100020000Y-86843750D01*
X105490000Y-89043750D02*
X105490000Y-92643750D01*
%TO.C,R604*%
X63314564Y-146135000D02*
X62860436Y-146135000D01*
X63314564Y-144665000D02*
X62860436Y-144665000D01*
%TO.C,R602*%
X63302064Y-141465000D02*
X62847936Y-141465000D01*
X63302064Y-142935000D02*
X62847936Y-142935000D01*
%TO.C,C109*%
X82288748Y-150835000D02*
X82811252Y-150835000D01*
X82288748Y-149365000D02*
X82811252Y-149365000D01*
%TO.C,D601*%
X61377500Y-152240000D02*
X64062500Y-152240000D01*
X64062500Y-154160000D02*
X61377500Y-154160000D01*
X61377500Y-154160000D02*
X61377500Y-152240000D01*
%TD*%
M02*
