M48
; DRILL file {KiCad (6.0.8)} date Fri Oct 21 20:54:04 2022
; FORMAT={-:-/ absolute / inch / decimal}
; #@! TF.CreationDate,2022-10-21T20:54:04+03:00
; #@! TF.GenerationSoftware,Kicad,Pcbnew,(6.0.8)
; #@! TF.FileFunction,Plated,1,2,PTH
FMAT,2
INCH
; #@! TA.AperFunction,Plated,PTH,ViaDrill
T1C0.0118
; #@! TA.AperFunction,Plated,PTH,ViaDrill
T2C0.0197
; #@! TA.AperFunction,Plated,PTH,ComponentDrill
T3C0.0315
; #@! TA.AperFunction,Plated,PTH,ComponentDrill
T4C0.0362
; #@! TA.AperFunction,Plated,PTH,ViaDrill
T5C0.0394
; #@! TA.AperFunction,Plated,PTH,ComponentDrill
T6C0.0394
; #@! TA.AperFunction,Plated,PTH,ComponentDrill
T7C0.0551
; #@! TA.AperFunction,Plated,PTH,ComponentDrill
T8C0.0917
%
G90
G05
T1
X4.3346Y-2.3976
X4.3898Y-2.3228
T2
X1.9016Y-5.0906
X2.1693Y-3.1024
X2.2126Y-3.7165
X2.2402Y-2.4803
X2.2559Y-1.9016
X2.3307Y-3.8346
X2.3425Y-4.8583
X2.4016Y-4.9724
X2.5236Y-4.2047
X2.6535Y-5.8346
X2.6575Y-4.9331
X2.6575Y-5.7165
X2.6614Y-5.185
X2.6811Y-4.5354
X2.6811Y-4.7362
X2.7756Y-5.1063
X2.8031Y-3.1417
X2.8346Y-4.8189
X2.8386Y-5.0354
X2.8465Y-5.4291
X2.8778Y-3.4998
X2.8898Y-2.5827
X2.8898Y-2.9646
X2.9567Y-3.7126
X2.9567Y-5.0945
X2.9744Y-4.935
X3.0315Y-4.3189
X3.1181Y-4.4843
X3.1181Y-4.8268
X3.1181Y-4.9094
X3.1181Y-5.9016
X3.122Y-4.563
X3.1339Y-5.0945
X3.1693Y-3.6929
X3.1693Y-4.752
X3.2047Y-4.4488
X3.2126Y-5.5827
X3.2126Y-5.7244
X3.2598Y-5.3504
X3.2638Y-3.9213
X3.2756Y-5.0472
X3.2835Y-4.4016
X3.2835Y-5.1339
X3.3189Y-5.5276
X3.3346Y-3.7323
X3.3346Y-4.9921
X3.3425Y-3.937
X3.3583Y-4.3661
X3.378Y-4.2913
X3.4134Y-4.9961
X3.4173Y-3.5906
X3.4185Y-3.0165
X3.4331Y-3.937
X3.4724Y-4.0984
X3.4803Y-5.189
X3.4843Y-5.0827
X3.4961Y-5.3622
X3.5Y-4.2559
X3.5Y-5.4488
X3.513Y-2.9023
X3.5551Y-3.9685
X3.5799Y-3.6496
X3.7323Y-4.252
X3.7559Y-5.5315
X3.7795Y-3.7835
X3.7913Y-4.8583
X3.7953Y-4.2992
X3.811Y-4.4173
X3.8189Y-4.2205
X3.8264Y-2.892
X3.8752Y-3.485
X3.8819Y-5.7598
X3.8858Y-5.1535
X3.8858Y-5.3622
X3.8858Y-5.5827
X3.8909Y-3.5677
X3.8949Y-3.7055
X3.8976Y-4.1299
X3.9134Y-4.3543
X3.9606Y-5.5118
X3.9697Y-3.1937
X3.9764Y-4.815
X3.9882Y-2.4843
X4.0Y-4.2638
X4.0315Y-4.3819
X4.0433Y-5.7638
X4.0748Y-5.3701
X4.0945Y-4.0039
X4.1339Y-4.5512
X4.1417Y-2.4646
X4.1496Y-3.237
X4.1496Y-4.2087
X4.1654Y-4.374
X4.2008Y-5.2402
X4.2126Y-5.6417
X4.2165Y-1.9921
X4.2638Y-4.8746
X4.2638Y-5.311
X4.2756Y-5.2126
X4.311Y-3.9646
X4.3268Y-4.374
X4.3307Y-4.4843
X4.3327Y-1.9941
X4.3504Y-4.2795
X4.3752Y-3.0874
X4.4055Y-5.3228
X4.4094Y-5.1496
X4.4409Y-4.9291
X4.4449Y-2.1614
X4.4528Y-4.5709
X4.4803Y-6.0984
X4.4815Y-2.3314
X4.4815Y-2.3314
X4.4843Y-4.2638
X4.513Y-2.2251
X4.5157Y-3.748
X4.5157Y-5.2323
X4.5366Y-3.4299
X4.5984Y-4.6299
X4.5984Y-4.7205
X4.635Y-2.7842
X4.6614Y-5.1929
X4.689Y-4.5315
X4.6929Y-4.0354
X4.6929Y-4.2677
X4.7008Y-3.7283
X4.7362Y-3.5039
X4.7795Y-4.7835
X4.7795Y-4.8701
X4.7795Y-5.0866
X4.8083Y-3.8345
X4.9646Y-5.1339
X5.0315Y-4.4055
X5.0602Y-2.4889
X5.0681Y-4.3227
X5.0748Y-5.2559
X5.0748Y-5.3583
X5.1122Y-5.0965
X5.1547Y-2.1307
X5.1811Y-4.0276
X5.198Y-3.7834
X5.2874Y-3.4961
X5.3437Y-2.0244
X5.5406Y-4.0519
X5.5563Y-2.2881
X5.6142Y-3.5354
X5.815Y-4.0315
X5.8189Y-4.5984
X5.9134Y-3.0079
X5.9252Y-3.5276
X5.9579Y-4.4968
X6.1154Y-2.0086
X6.1772Y-5.4606
T3
X3.6953Y-3.6316
X3.7937Y-3.6316
X3.8803Y-3.8679
X3.9787Y-3.8679
X4.039Y-2.6204
X4.0917Y-2.8905
X4.0917Y-3.0874
X4.1201Y-3.8718
X4.1374Y-2.6204
X4.2185Y-3.8718
X4.3722Y-3.3049
X4.3722Y-3.4033
X4.3722Y-3.5844
X4.3722Y-3.6828
X4.635Y-2.6267
X4.7335Y-2.6267
X5.1429Y-4.7212
X5.1429Y-4.9181
X5.1744Y-2.2724
X5.1744Y-2.4692
X5.185Y-1.8896
X5.185Y-1.988
X5.3594Y-2.422
X5.4579Y-2.1309
X5.4579Y-2.2293
X5.5563Y-2.422
X5.7335Y-1.8748
X5.9303Y-1.8748
T4
X2.1654Y-5.8346
X2.1654Y-5.9331
X2.2441Y-5.8346
X2.2441Y-5.9331
T5
X1.6378Y-1.6378
X1.6378Y-6.2835
X2.7008Y-2.5236
X4.4134Y-5.8189
X5.2598Y-4.5709
X6.3268Y-1.6378
X6.3268Y-6.2835
T6
X2.4244Y-3.937
X2.5244Y-3.937
X2.6244Y-3.937
X2.7244Y-3.937
X2.8244Y-3.937
X2.9969Y-6.0827
X3.0969Y-6.0827
X3.1969Y-6.0827
X3.2969Y-6.0827
X3.7165Y-6.0827
X3.8165Y-6.0827
X3.9165Y-6.0827
X4.0165Y-6.0827
X4.1165Y-6.0827
X4.2165Y-6.0827
T7
X1.9197Y-4.0324
X1.9303Y-3.3157
X1.9303Y-3.5157
X1.9382Y-2.0204
X1.9382Y-2.2204
X1.9386Y-2.6743
X1.9386Y-2.8743
X2.1197Y-4.0324
X3.1579Y-3.2693
X3.1602Y-2.0976
X3.1602Y-2.6204
X3.3579Y-3.2693
X3.3602Y-2.0976
X3.3602Y-2.6204
X3.5579Y-3.2693
X3.5602Y-2.0976
X3.5602Y-2.6204
X3.7579Y-3.2693
X3.7602Y-2.0976
X3.7602Y-2.6204
X4.7865Y-5.8331
X4.7865Y-6.0331
X5.4173Y-5.8331
X5.4173Y-6.0331
X5.4201Y-2.7291
X5.4209Y-3.2431
X5.4209Y-3.7566
X5.4217Y-4.3205
X5.4217Y-4.8687
X5.6201Y-2.7291
X5.6209Y-3.2431
X5.6209Y-3.7566
X5.6217Y-4.3205
X5.6217Y-4.8687
X5.8201Y-2.7291
X5.8209Y-2.2251
X5.8209Y-3.2431
X5.8209Y-3.7566
X5.8217Y-4.3205
X5.8217Y-4.8687
X6.0201Y-2.7291
X6.0206Y-5.8331
X6.0206Y-6.0331
X6.0209Y-2.2251
X6.0209Y-3.2431
X6.0209Y-3.7566
X6.0217Y-4.3205
X6.0217Y-4.8687
T8
X2.0587Y-5.6469
X2.0587Y-6.1209
T0
M30
